PathFileType	4	(X/Y/Z)	./trials/Ivanov/data/jump_js_1.trc
DataRate	CameraRate	NumFrames	NumMarkers	Units	OrigDataRate	OrigDataStartFrame	OrigNumFrames
400	400	4	71	mm	400	143	285
Frame#	Time	r_illiac			r_troch			r_asis			l_illiac			l_troch			l_asis			r_psis			sacrum			l_psis			r_thigh1			r_thigh2			r_thigh3			r_thigh4			rl_knee			rm_knee			r_shank1			r_shank2			r_shank3			r_shank4			r_heel			rl_ankle			rm_ankle			r_metatarsal5			r_metatarsal1			l_thigh1			l_thigh2			l_thigh3			l_thigh4			ll_knee			lm_knee			l_shank1			l_shank2			l_shank3			l_shank4			l_heel			ll_ankle			lm_ankle			l_metatarsal5			l_metatarsal1			back_down			neck			back_right			back_left			head_up			head_front			head_left			head_right			r_shoulder			r_humerus1			r_humerus2			r_humerus3			rl_elbow			rm_elbow			r_radius1			r_radius2			r_radius3			rl_wrist			rm_wrist			r_hand			l_shoulder			l_humerus1			l_humerus2			l_humerus3			ll_elbow			lm_elbow			l_radius1			l_radius2			l_radius3			ll_wrist			lm_wrist			l_hand		
		X1	Y1	Z1	X2	Y2	Z2	X3	Y3	Z3	X4	Y4	Z4	X5	Y5	Z5	X6	Y6	Z6	X7	Y7	Z7	X8	Y8	Z8	X9	Y9	Z9	X10	Y10	Z10	X11	Y11	Z11	X12	Y12	Z12	X13	Y13	Z13	X14	Y14	Z14	X15	Y15	Z15	X16	Y16	Z16	X17	Y17	Z17	X18	Y18	Z18	X19	Y19	Z19	X20	Y20	Z20	X21	Y21	Z21	X22	Y22	Z22	X23	Y23	Z23	X24	Y24	Z24	X25	Y25	Z25	X26	Y26	Z26	X27	Y27	Z27	X28	Y28	Z28	X29	Y29	Z29	X30	Y30	Z30	X31	Y31	Z31	X32	Y32	Z32	X33	Y33	Z33	X34	Y34	Z34	X35	Y35	Z35	X36	Y36	Z36	X37	Y37	Z37	X38	Y38	Z38	X39	Y39	Z39	X40	Y40	Z40	X41	Y41	Z41	X42	Y42	Z42	X43	Y43	Z43	X44	Y44	Z44	X45	Y45	Z45	X46	Y46	Z46	X47	Y47	Z47	X48	Y48	Z48	X49	Y49	Z49	X50	Y50	Z50	X51	Y51	Z51	X52	Y52	Z52	X53	Y53	Z53	X54	Y54	Z54	X55	Y55	Z55	X56	Y56	Z56	X57	Y57	Z57	X58	Y58	Z58	X59	Y59	Z59	X60	Y60	Z60	X61	Y61	Z61	X62	Y62	Z62	X63	Y63	Z63	X64	Y64	Z64	X65	Y65	Z65	X66	Y66	Z66	X67	Y67	Z67	X68	Y68	Z68	X69	Y69	Z69	X70	Y70	Z70	X71	Y71	Z71
143	0.3550	-394.282	928.131	571.422	-419.322	770.065	610.177	-346.404	855.544	534.876	-391.309	924.932	227.969	-456.080	785.850	203.159	-348.183	857.529	272.011	-504.411	959.256	452.854	-484.868	984.931	404.415	-509.695	956.634	353.881	-334.426	671.146	605.664	-280.190	723.376	584.906	-200.698	624.609	588.749	-244.354	587.639	603.894	-158.930	475.945	589.063	-158.536	468.434	448.123	-231.414	381.897	610.432	-167.662	355.999	586.093	-215.556	257.566	576.227	-269.564	279.384	603.636	-444.650	47.496	536.109	-360.890	95.500	583.308	-341.683	104.504	474.669	-226.571	37.414	600.011	-203.650	48.831	512.239	-356.129	699.182	196.470	-301.670	738.404	217.703	-225.956	641.595	208.093	-277.724	602.068	190.052	-178.233	475.232	195.024	-173.992	437.384	328.714	-260.787	401.963	181.833	-196.794	372.770	184.717	-243.250	277.789	186.018	-299.018	297.191	180.723	-449.551	55.113	239.464	-365.363	89.364	192.886	-343.979	98.063	303.187	-232.782	35.242	167.405	-205.486	41.479	262.961	-411.723	1082.482	395.981	-243.803	1356.297	385.950	-323.541	1241.062	500.267	-323.893	1237.945	273.015	-144.985	1609.810	376.000	-7.489	1545.728	366.652	-115.873	1516.044	278.047	-111.469	1530.158	469.914	-109.289	1331.830	564.353	-149.258	1171.027	658.906	-192.270	1278.377	720.651	-213.647	1177.666	741.321	-278.176	1107.832	794.762	-364.180	1160.221	760.549	-282.675	1022.848	697.068	-337.218	1007.371	805.090	-342.867	950.377	719.789	-413.950	929.214	636.199	-392.202	875.069	710.359	-368.858	875.704	631.794	-143.148	1357.269	212.971	-150.232	1186.877	129.718	-207.994	1287.495	69.022	-218.329	1189.272	52.852	-298.071	1110.627	-14.712	-366.817	1164.823	30.504	-306.459	1023.733	114.592	-340.623	966.745	1.487	-356.352	934.338	97.083	-413.700	928.134	164.396	-380.480	879.575	95.309	-375.977	868.457	164.698
144	0.3575	-392.780	933.663	571.366	-418.173	774.844	609.845	-344.720	860.863	534.800	-389.505	930.201	227.938	-454.123	790.523	203.735	-346.192	862.661	272.165	-502.804	964.101	452.688	-483.414	989.879	404.230	-507.953	961.405	353.790	-333.884	674.652	605.940	-279.051	726.311	585.391	-201.361	626.217	589.265	-244.809	590.142	604.382	-160.387	477.628	589.689	-159.842	469.917	449.046	-233.049	383.075	610.961	-169.069	357.486	586.737	-216.294	258.637	576.802	-270.499	280.058	604.104	-444.475	47.793	535.869	-360.797	95.725	583.361	-341.380	104.803	474.818	-226.433	37.342	600.071	-203.347	48.739	512.323	-355.179	702.830	196.414	-300.299	741.423	217.501	-225.524	643.799	207.886	-277.863	604.799	190.010	-179.588	476.738	194.913	-174.647	438.764	328.607	-262.335	402.777	181.700	-198.111	373.771	184.465	-244.347	278.432	185.538	-299.760	297.818	180.787	-449.377	55.314	239.551	-365.277	89.533	192.802	-343.795	98.370	303.103	-232.626	35.180	167.356	-205.266	41.413	262.913	-411.292	1087.848	395.810	-245.311	1363.242	385.995	-324.159	1247.154	500.193	-325.025	1244.690	273.234	-145.747	1617.381	375.793	-8.445	1553.090	366.490	-116.999	1523.666	277.982	-112.331	1537.540	469.874	-110.496	1339.899	564.090	-149.811	1178.916	658.797	-193.749	1286.259	720.053	-214.592	1185.325	740.846	-279.025	1115.329	794.281	-365.162	1167.016	759.187	-282.002	1029.816	696.790	-337.380	1014.392	804.580	-342.385	956.913	719.540	-412.520	935.202	635.611	-391.294	881.543	710.116	-365.894	881.535	631.577	-145.347	1365.836	213.469	-151.136	1195.647	129.998	-210.366	1295.770	69.846	-219.720	1197.586	53.482	-299.110	1118.097	-13.714	-368.300	1171.385	32.392	-305.845	1030.495	115.286	-340.199	973.816	2.075	-355.077	940.645	97.615	-411.762	933.558	165.246	-378.586	885.660	95.682	-373.695	873.959	165.110
145	0.3600	-391.299	939.319	571.290	-417.051	779.727	609.513	-343.143	866.252	534.750	-387.809	935.455	227.932	-452.223	795.261	204.330	-344.090	867.871	272.287	-501.209	969.025	452.538	-482.018	994.864	404.074	-506.286	966.273	353.592	-333.463	678.393	606.212	-277.905	729.409	585.889	-201.380	628.321	589.968	-245.623	592.547	604.533	-162.022	479.509	590.416	-161.104	471.425	449.918	-234.724	384.047	611.521	-170.656	358.919	587.420	-217.014	259.997	577.403	-271.563	280.944	604.648	-444.255	48.150	535.634	-360.677	95.927	583.413	-341.043	105.117	474.976	-226.282	37.264	600.125	-203.044	48.653	512.401	-354.295	706.570	196.418	-298.854	744.493	217.301	-225.263	645.924	207.709	-278.017	607.662	189.698	-181.004	478.134	194.668	-176.547	439.943	328.384	-263.861	403.719	181.543	-199.513	375.176	184.266	-245.380	279.436	185.384	-300.888	298.601	180.631	-449.161	55.514	239.623	-365.186	89.741	192.676	-343.599	98.590	302.991	-232.476	35.126	167.292	-205.058	41.325	262.840	-410.805	1093.240	395.610	-246.832	1370.346	386.118	-324.967	1253.659	500.183	-326.136	1251.511	273.408	-146.734	1624.905	375.865	-9.341	1560.509	366.373	-117.596	1531.654	277.418	-113.123	1544.930	469.824	-111.673	1348.034	563.863	-150.303	1186.976	658.623	-195.133	1294.070	719.517	-215.559	1193.116	740.425	-279.773	1122.692	793.696	-366.043	1173.725	757.842	-281.821	1036.940	696.499	-337.460	1021.567	804.127	-343.210	963.376	719.589	-411.173	941.127	635.035	-390.336	887.993	709.862	-364.420	887.163	631.243	-147.610	1374.502	213.985	-152.130	1204.411	130.309	-212.806	1304.010	70.634	-221.104	1205.795	54.094	-300.174	1125.534	-12.656	-369.762	1177.899	34.328	-305.222	1037.301	115.981	-339.623	980.793	2.710	-353.836	947.067	98.127	-409.905	938.983	166.120	-376.718	891.791	96.074	-371.607	879.463	165.502
146	0.3625	-389.904	945.141	571.276	-415.916	784.724	609.181	-341.561	871.874	534.757	-385.808	940.894	227.794	-450.277	800.238	204.944	-342.050	873.232	272.385	-499.595	974.030	452.353	-480.526	999.946	403.902	-504.590	971.283	353.392	-333.075	682.234	606.557	-276.796	732.497	586.439	-201.750	630.444	590.464	-246.111	595.236	605.283	-163.718	481.383	591.110	-162.490	472.926	450.800	-236.698	385.073	612.082	-172.755	360.314	588.198	-218.071	260.924	578.031	-272.696	282.052	605.239	-444.024	48.562	535.383	-360.594	96.202	583.471	-340.715	105.470	475.162	-226.170	37.196	600.186	-202.729	48.700	512.436	-353.394	710.261	196.369	-297.481	747.669	217.035	-225.093	648.326	207.498	-278.330	610.516	189.678	-182.516	479.709	194.427	-177.996	441.208	328.110	-265.560	404.541	181.376	-201.107	376.245	184.233	-246.351	280.538	185.149	-301.930	299.251	180.531	-448.934	55.792	239.703	-365.145	89.972	192.585	-343.437	98.793	302.877	-232.324	35.074	167.219	-204.845	41.270	262.773	-410.264	1098.782	395.420	-248.402	1377.242	386.004	-325.723	1260.252	500.178	-327.304	1258.533	273.673	-147.567	1632.478	376.038	-10.279	1567.969	366.236	-119.096	1538.963	277.909	-113.860	1552.251	469.792	-112.801	1356.146	563.482	-150.889	1194.924	658.323	-196.480	1301.939	718.994	-216.442	1200.760	739.825	-280.420	1130.025	793.081	-366.893	1180.396	756.452	-281.567	1043.861	696.115	-337.528	1028.591	803.587	-342.781	970.165	719.269	-409.949	947.175	634.458	-389.410	894.509	709.615	-363.419	893.101	631.021	-149.855	1383.107	214.478	-153.109	1213.163	130.751	-215.033	1312.163	71.339	-222.640	1213.635	54.989	-301.250	1132.996	-11.614	-371.070	1184.321	36.159	-304.643	1044.083	116.763	-339.125	987.739	3.383	-352.568	953.453	98.706	-408.058	944.496	167.032	-374.847	897.893	96.477	-369.339	885.088	165.946
